<mxfile host="app.diagrams.net" agent="Mozilla/5.0 (Windows NT 10.0; Win64; x64; rv:141.0) Gecko/20100101 Firefox/141.0" version="28.1.1">
  <diagram name="Git Flow" id="x79bt_cFCCs47H4MwOQ9">
    <mxGraphModel dx="2504" dy="1536" grid="1" gridSize="10" guides="1" tooltips="1" connect="1" arrows="1" fold="1" page="1" pageScale="1" pageWidth="850" pageHeight="1100" math="0" shadow="0">
      <root>
        <mxCell id="0" />
        <mxCell id="1" parent="0" />
        <mxCell id="pbeQ1OUSWtnWT2OfANO1-21" style="edgeStyle=orthogonalEdgeStyle;rounded=0;orthogonalLoop=1;jettySize=auto;html=1;exitX=1;exitY=0.5;exitDx=0;exitDy=0;entryX=0;entryY=0.5;entryDx=0;entryDy=0;" edge="1" parent="1" source="pbeQ1OUSWtnWT2OfANO1-19" target="sboD8QZ-a7jqag9A3mm3-32">
          <mxGeometry relative="1" as="geometry" />
        </mxCell>
        <mxCell id="pbeQ1OUSWtnWT2OfANO1-19" value="" style="rounded=1;whiteSpace=wrap;html=1;" vertex="1" parent="1">
          <mxGeometry x="1150" y="120" width="350" height="160" as="geometry" />
        </mxCell>
        <mxCell id="pbeQ1OUSWtnWT2OfANO1-20" value="CD" style="text;html=1;align=center;verticalAlign=middle;whiteSpace=wrap;rounded=0;fontSize=30;" vertex="1" parent="1">
          <mxGeometry x="1300" y="70" width="60" height="30" as="geometry" />
        </mxCell>
        <mxCell id="pbeQ1OUSWtnWT2OfANO1-15" value="" style="rounded=1;whiteSpace=wrap;html=1;" vertex="1" parent="1">
          <mxGeometry x="640" y="120" width="350" height="160" as="geometry" />
        </mxCell>
        <mxCell id="sboD8QZ-a7jqag9A3mm3-18" style="edgeStyle=orthogonalEdgeStyle;rounded=0;orthogonalLoop=1;jettySize=auto;html=1;exitX=0.5;exitY=1;exitDx=0;exitDy=0;entryX=0.5;entryY=0;entryDx=0;entryDy=0;" parent="1" source="sboD8QZ-a7jqag9A3mm3-4" target="sboD8QZ-a7jqag9A3mm3-19" edge="1">
          <mxGeometry relative="1" as="geometry">
            <mxPoint x="440" y="320" as="targetPoint" />
          </mxGeometry>
        </mxCell>
        <mxCell id="sboD8QZ-a7jqag9A3mm3-28" style="edgeStyle=orthogonalEdgeStyle;rounded=0;orthogonalLoop=1;jettySize=auto;html=1;exitX=0.5;exitY=1;exitDx=0;exitDy=0;entryX=0.5;entryY=0;entryDx=0;entryDy=0;" parent="1" source="sboD8QZ-a7jqag9A3mm3-4" target="sboD8QZ-a7jqag9A3mm3-23" edge="1">
          <mxGeometry relative="1" as="geometry" />
        </mxCell>
        <mxCell id="sboD8QZ-a7jqag9A3mm3-31" style="edgeStyle=orthogonalEdgeStyle;rounded=0;orthogonalLoop=1;jettySize=auto;html=1;exitX=0.5;exitY=1;exitDx=0;exitDy=0;entryX=0.5;entryY=0;entryDx=0;entryDy=0;" parent="1" source="sboD8QZ-a7jqag9A3mm3-4" edge="1">
          <mxGeometry relative="1" as="geometry">
            <mxPoint x="510" y="320.0000000000002" as="targetPoint" />
          </mxGeometry>
        </mxCell>
        <mxCell id="pbeQ1OUSWtnWT2OfANO1-16" style="edgeStyle=orthogonalEdgeStyle;rounded=0;orthogonalLoop=1;jettySize=auto;html=1;exitX=1;exitY=0.5;exitDx=0;exitDy=0;entryX=0;entryY=0.5;entryDx=0;entryDy=0;" edge="1" parent="1" source="sboD8QZ-a7jqag9A3mm3-4" target="pbeQ1OUSWtnWT2OfANO1-15">
          <mxGeometry relative="1" as="geometry" />
        </mxCell>
        <mxCell id="sboD8QZ-a7jqag9A3mm3-4" value="Pipeline ArgoCD Project Repo" style="rounded=0;whiteSpace=wrap;html=1;" parent="1" vertex="1">
          <mxGeometry x="380" y="170" width="120" height="60" as="geometry" />
        </mxCell>
        <mxCell id="dXb53XHVz1ZigSLj6hIX-23" style="edgeStyle=orthogonalEdgeStyle;rounded=0;orthogonalLoop=1;jettySize=auto;html=1;exitX=1;exitY=0.5;exitDx=0;exitDy=0;entryX=0;entryY=0.5;entryDx=0;entryDy=0;" parent="1" source="sboD8QZ-a7jqag9A3mm3-6" target="dXb53XHVz1ZigSLj6hIX-22" edge="1">
          <mxGeometry relative="1" as="geometry" />
        </mxCell>
        <mxCell id="sboD8QZ-a7jqag9A3mm3-6" value="ArgoCD" style="rounded=0;whiteSpace=wrap;html=1;" parent="1" vertex="1">
          <mxGeometry x="1170" y="170" width="120" height="60" as="geometry" />
        </mxCell>
        <mxCell id="sboD8QZ-a7jqag9A3mm3-19" value="apps/" style="swimlane;fontStyle=0;childLayout=stackLayout;horizontal=1;startSize=30;horizontalStack=0;resizeParent=1;resizeParentMax=0;resizeLast=0;collapsible=1;marginBottom=0;whiteSpace=wrap;html=1;" parent="1" vertex="1">
          <mxGeometry x="90" y="320" width="140" height="90" as="geometry" />
        </mxCell>
        <mxCell id="sboD8QZ-a7jqag9A3mm3-20" value="monitoring.yaml" style="text;strokeColor=none;fillColor=none;align=left;verticalAlign=middle;spacingLeft=4;spacingRight=4;overflow=hidden;points=[[0,0.5],[1,0.5]];portConstraint=eastwest;rotatable=0;whiteSpace=wrap;html=1;" parent="sboD8QZ-a7jqag9A3mm3-19" vertex="1">
          <mxGeometry y="30" width="140" height="30" as="geometry" />
        </mxCell>
        <mxCell id="sboD8QZ-a7jqag9A3mm3-22" value="wiki-js-prod.yaml" style="text;strokeColor=none;fillColor=none;align=left;verticalAlign=middle;spacingLeft=4;spacingRight=4;overflow=hidden;points=[[0,0.5],[1,0.5]];portConstraint=eastwest;rotatable=0;whiteSpace=wrap;html=1;" parent="sboD8QZ-a7jqag9A3mm3-19" vertex="1">
          <mxGeometry y="60" width="140" height="30" as="geometry" />
        </mxCell>
        <mxCell id="sboD8QZ-a7jqag9A3mm3-23" value="monitoring/" style="swimlane;fontStyle=0;childLayout=stackLayout;horizontal=1;startSize=30;horizontalStack=0;resizeParent=1;resizeParentMax=0;resizeLast=0;collapsible=1;marginBottom=0;whiteSpace=wrap;html=1;" parent="1" vertex="1">
          <mxGeometry x="260" y="320" width="140" height="60" as="geometry" />
        </mxCell>
        <mxCell id="sboD8QZ-a7jqag9A3mm3-24" value="prometheus-operator.yaml" style="text;strokeColor=none;fillColor=none;align=left;verticalAlign=middle;spacingLeft=4;spacingRight=4;overflow=hidden;points=[[0,0.5],[1,0.5]];portConstraint=eastwest;rotatable=0;whiteSpace=wrap;html=1;" parent="sboD8QZ-a7jqag9A3mm3-23" vertex="1">
          <mxGeometry y="30" width="140" height="30" as="geometry" />
        </mxCell>
        <mxCell id="dXb53XHVz1ZigSLj6hIX-27" value="" style="edgeStyle=orthogonalEdgeStyle;rounded=0;orthogonalLoop=1;jettySize=auto;html=1;" parent="1" source="sboD8QZ-a7jqag9A3mm3-32" target="dXb53XHVz1ZigSLj6hIX-26" edge="1">
          <mxGeometry relative="1" as="geometry" />
        </mxCell>
        <mxCell id="pbeQ1OUSWtnWT2OfANO1-28" style="edgeStyle=orthogonalEdgeStyle;rounded=0;orthogonalLoop=1;jettySize=auto;html=1;exitX=0.5;exitY=1;exitDx=0;exitDy=0;entryX=0.5;entryY=0;entryDx=0;entryDy=0;" edge="1" parent="1" source="sboD8QZ-a7jqag9A3mm3-32" target="pbeQ1OUSWtnWT2OfANO1-27">
          <mxGeometry relative="1" as="geometry" />
        </mxCell>
        <mxCell id="sboD8QZ-a7jqag9A3mm3-32" value="Cluster" style="rounded=0;whiteSpace=wrap;html=1;" parent="1" vertex="1">
          <mxGeometry x="1670" y="170" width="120" height="60" as="geometry" />
        </mxCell>
        <mxCell id="dXb53XHVz1ZigSLj6hIX-7" value="secrets/" style="swimlane;fontStyle=0;childLayout=stackLayout;horizontal=1;startSize=30;horizontalStack=0;resizeParent=1;resizeParentMax=0;resizeLast=0;collapsible=1;marginBottom=0;whiteSpace=wrap;html=1;" parent="1" vertex="1">
          <mxGeometry x="440" y="320" width="140" height="60" as="geometry" />
        </mxCell>
        <mxCell id="dXb53XHVz1ZigSLj6hIX-8" value="postgresql.yaml" style="text;strokeColor=none;fillColor=none;align=left;verticalAlign=middle;spacingLeft=4;spacingRight=4;overflow=hidden;points=[[0,0.5],[1,0.5]];portConstraint=eastwest;rotatable=0;whiteSpace=wrap;html=1;" parent="dXb53XHVz1ZigSLj6hIX-7" vertex="1">
          <mxGeometry y="30" width="140" height="30" as="geometry" />
        </mxCell>
        <mxCell id="dXb53XHVz1ZigSLj6hIX-22" value="Notifications" style="rounded=0;whiteSpace=wrap;html=1;" parent="1" vertex="1">
          <mxGeometry x="1350" y="170" width="120" height="60" as="geometry" />
        </mxCell>
        <mxCell id="dXb53XHVz1ZigSLj6hIX-26" value="Monitoring" style="rounded=0;whiteSpace=wrap;html=1;" parent="1" vertex="1">
          <mxGeometry x="1670" y="320" width="120" height="60" as="geometry" />
        </mxCell>
        <mxCell id="pbeQ1OUSWtnWT2OfANO1-5" style="edgeStyle=orthogonalEdgeStyle;rounded=0;orthogonalLoop=1;jettySize=auto;html=1;exitX=1;exitY=0.5;exitDx=0;exitDy=0;exitPerimeter=0;entryX=0;entryY=0.5;entryDx=0;entryDy=0;" edge="1" parent="1" source="pbeQ1OUSWtnWT2OfANO1-3" target="sboD8QZ-a7jqag9A3mm3-4">
          <mxGeometry relative="1" as="geometry" />
        </mxCell>
        <mxCell id="pbeQ1OUSWtnWT2OfANO1-3" value="Push" style="shape=singleArrow;whiteSpace=wrap;html=1;arrowWidth=0.4;arrowSize=0.4;rounded=0;" vertex="1" parent="1">
          <mxGeometry x="200" y="170" width="80" height="60" as="geometry" />
        </mxCell>
        <mxCell id="pbeQ1OUSWtnWT2OfANO1-7" style="edgeStyle=orthogonalEdgeStyle;rounded=0;orthogonalLoop=1;jettySize=auto;html=1;exitX=1;exitY=0.5;exitDx=0;exitDy=0;entryX=0;entryY=0.5;entryDx=0;entryDy=0;" edge="1" parent="1" source="pbeQ1OUSWtnWT2OfANO1-8" target="pbeQ1OUSWtnWT2OfANO1-9">
          <mxGeometry relative="1" as="geometry" />
        </mxCell>
        <mxCell id="pbeQ1OUSWtnWT2OfANO1-8" value="kubeconform-validating" style="rounded=0;whiteSpace=wrap;html=1;" vertex="1" parent="1">
          <mxGeometry x="660" y="170" width="120" height="60" as="geometry" />
        </mxCell>
        <mxCell id="pbeQ1OUSWtnWT2OfANO1-9" value="notifications" style="rounded=0;whiteSpace=wrap;html=1;" vertex="1" parent="1">
          <mxGeometry x="840" y="170" width="120" height="60" as="geometry" />
        </mxCell>
        <mxCell id="pbeQ1OUSWtnWT2OfANO1-18" value="CI" style="text;html=1;align=center;verticalAlign=middle;whiteSpace=wrap;rounded=0;fontSize=30;" vertex="1" parent="1">
          <mxGeometry x="790" y="70" width="60" height="30" as="geometry" />
        </mxCell>
        <mxCell id="pbeQ1OUSWtnWT2OfANO1-26" style="edgeStyle=orthogonalEdgeStyle;rounded=0;orthogonalLoop=1;jettySize=auto;html=1;exitX=1;exitY=0.5;exitDx=0;exitDy=0;exitPerimeter=0;entryX=0;entryY=0.5;entryDx=0;entryDy=0;" edge="1" parent="1" source="pbeQ1OUSWtnWT2OfANO1-24" target="pbeQ1OUSWtnWT2OfANO1-19">
          <mxGeometry relative="1" as="geometry" />
        </mxCell>
        <mxCell id="pbeQ1OUSWtnWT2OfANO1-24" value="Pull" style="shape=singleArrow;whiteSpace=wrap;html=1;arrowWidth=0.4;arrowSize=0.4;rounded=0;" vertex="1" parent="1">
          <mxGeometry x="1030" y="170" width="80" height="60" as="geometry" />
        </mxCell>
        <mxCell id="pbeQ1OUSWtnWT2OfANO1-25" style="edgeStyle=orthogonalEdgeStyle;rounded=0;orthogonalLoop=1;jettySize=auto;html=1;exitX=1;exitY=0.5;exitDx=0;exitDy=0;entryX=0;entryY=0.5;entryDx=0;entryDy=0;entryPerimeter=0;" edge="1" parent="1" source="pbeQ1OUSWtnWT2OfANO1-15" target="pbeQ1OUSWtnWT2OfANO1-24">
          <mxGeometry relative="1" as="geometry" />
        </mxCell>
        <mxCell id="pbeQ1OUSWtnWT2OfANO1-27" value="Database" style="rounded=0;whiteSpace=wrap;html=1;" vertex="1" parent="1">
          <mxGeometry x="1840" y="320" width="120" height="60" as="geometry" />
        </mxCell>
      </root>
    </mxGraphModel>
  </diagram>
</mxfile>
